<svg width="384" height="192" viewBox="0 0 384 192" fill="none" xmlns="http://www.w3.org/2000/svg">
<rect width="384" height="192" fill="#A20967"/>
<rect x="76.5" y="75.5" width="115" height="74" fill="#CB0B81" stroke="black" stroke-dasharray="10 10"/>
<rect x="192.5" y="75.5" width="115" height="74" fill="#CB0B81" stroke="black" stroke-dasharray="10 10"/>
<circle cx="192" cy="86" r="63.5" fill="#E93A9A" stroke="black" stroke-miterlimit="2.61313"/>
<path d="M184 54C170.704 54 160 64.7165 160 77.9922C160 91.2839 170.72 101.984 184 101.984C189.673 101.984 194.807 99.952 198.906 96.684L220.229 118L224 114.23L202.677 92.9144C205.961 88.8103 208 83.6721 208 77.9922C208 64.7005 197.28 54 184 54ZM184 59.3316C194.341 59.3316 202.667 67.6542 202.667 77.9922C202.667 88.3302 194.341 96.6528 184 96.6528C173.659 96.6528 165.333 88.3302 165.333 77.9922C165.333 67.6542 173.659 59.3316 184 59.3316Z" fill="black"/>
</svg>
