<svg width="384" height="192" viewBox="0 0 384 192" fill="none" xmlns="http://www.w3.org/2000/svg">
<g clip-path="url(#clip0)">
<rect width="384" height="192" fill="#A20967"/>
<rect x="48.5" y="22.5" width="87" height="87" rx="4.5" fill="#E93A9A" stroke="black"/>
<path d="M48 48L136 48" stroke="black"/>
<path d="M57 68L128 68" stroke="black"/>
<path d="M57 73L114 73" stroke="black"/>
<path d="M57 83L114 83" stroke="black"/>
<path d="M57 93L114 93" stroke="black"/>
<path d="M57 78L119 78" stroke="black"/>
<path d="M57 88L119 88" stroke="black"/>
<rect x="81.5" y="36.5" width="21" height="21" rx="10.5" fill="#CB0B81" stroke="black"/>
<rect x="148.5" y="22.5" width="87" height="87" rx="4.5" fill="#E93A9A" stroke="black"/>
<path d="M148 48L236 48" stroke="black"/>
<path d="M157 68L228 68" stroke="black"/>
<path d="M157 73L214 73" stroke="black"/>
<path d="M157 83L214 83" stroke="black"/>
<path d="M157 93L214 93" stroke="black"/>
<path d="M157 78L219 78" stroke="black"/>
<path d="M157 88L219 88" stroke="black"/>
<rect x="181.5" y="36.5" width="21" height="21" rx="10.5" fill="#CB0B81" stroke="black"/>
<rect x="48.5" y="122.5" width="87" height="87" rx="4.5" fill="#E93A9A" stroke="black"/>
<path d="M48 148H136" stroke="black"/>
<path d="M57 168L128 168" stroke="black"/>
<path d="M57 173L114 173" stroke="black"/>
<path d="M57 183L114 183" stroke="black"/>
<path d="M57 178L119 178" stroke="black"/>
<path d="M57 188L119 188" stroke="black"/>
<rect x="81.5" y="136.5" width="21" height="21" rx="10.5" fill="#CB0B81" stroke="black"/>
<rect x="148.5" y="122.5" width="87" height="87" rx="4.5" fill="#E93A9A" stroke="black"/>
<path d="M148 148H236" stroke="black"/>
<path d="M157 168L228 168" stroke="black"/>
<path d="M157 173L214 173" stroke="black"/>
<path d="M157 183L214 183" stroke="black"/>
<path d="M157 178L219 178" stroke="black"/>
<path d="M157 188L219 188" stroke="black"/>
<rect x="181.5" y="136.5" width="21" height="21" rx="10.5" fill="#CB0B81" stroke="black"/>
<rect x="248.5" y="22.5" width="87" height="87" rx="4.5" fill="#E93A9A" stroke="black"/>
<path d="M248 48L336 48" stroke="black"/>
<path d="M257 68L328 68" stroke="black"/>
<path d="M257 73L314 73" stroke="black"/>
<path d="M257 83L314 83" stroke="black"/>
<path d="M257 93L314 93" stroke="black"/>
<path d="M257 78L319 78" stroke="black"/>
<path d="M257 88L319 88" stroke="black"/>
<rect x="281.5" y="36.5" width="21" height="21" rx="10.5" fill="#CB0B81" stroke="black"/>
<rect x="248.5" y="122.5" width="87" height="87" rx="4.5" fill="#E93A9A" stroke="black"/>
<path d="M248 148H336" stroke="black"/>
<path d="M257 168L328 168" stroke="black"/>
<path d="M257 173L314 173" stroke="black"/>
<path d="M257 183L314 183" stroke="black"/>
<path d="M257 178L319 178" stroke="black"/>
<path d="M257 188L319 188" stroke="black"/>
<rect x="281.5" y="136.5" width="21" height="21" rx="10.5" fill="#CB0B81" stroke="black"/>
</g>
<defs>
<clipPath id="clip0">
<rect width="384" height="192" fill="white"/>
</clipPath>
</defs>
</svg>
