<svg width="384" height="192" viewBox="0 0 384 192" fill="none" xmlns="http://www.w3.org/2000/svg">
<g clip-path="url(#clip0)">
<rect width="384" height="192" fill="#686B6F"/>
<mask id="path-2-inside-1" fill="white">
<path d="M246.469 129.602C240.57 139.165 232.257 147.007 222.365 152.338C212.474 157.669 201.353 160.302 190.121 159.972C178.89 159.643 167.943 156.361 158.381 150.459C148.82 144.556 140.981 136.241 135.653 126.348L192 96L246.469 129.602Z"/>
</mask>
<path d="M246.469 129.602C240.57 139.165 232.257 147.007 222.365 152.338C212.474 157.669 201.353 160.302 190.121 159.972C178.89 159.643 167.943 156.361 158.381 150.459C148.82 144.556 140.981 136.241 135.653 126.348L192 96L246.469 129.602Z" fill="#3DD425" stroke="black" stroke-width="2" mask="url(#path-2-inside-1)"/>
<mask id="path-3-inside-2" fill="white">
<path d="M256 96C256 107.234 253.043 118.271 247.426 128C241.808 137.729 233.729 145.808 224 151.426L192 96H256Z"/>
</mask>
<path d="M256 96C256 107.234 253.043 118.271 247.426 128C241.808 137.729 233.729 145.808 224 151.426L192 96H256Z" fill="#E8CB2D" stroke="black" stroke-width="2" mask="url(#path-3-inside-2)"/>
<mask id="path-4-inside-3" fill="white">
<path d="M160 151.426C150.271 145.808 142.192 137.729 136.575 128C130.957 118.271 128 107.234 128 96L192 96L160 151.426Z"/>
</mask>
<path d="M160 151.426C150.271 145.808 142.192 137.729 136.575 128C130.957 118.271 128 107.234 128 96L192 96L160 151.426Z" fill="#3DAEE9" stroke="black" stroke-width="2" mask="url(#path-4-inside-3)"/>
<mask id="path-5-inside-4" fill="white">
<path d="M137.531 63.3983C143.431 53.835 151.744 45.9935 161.635 40.6622C171.527 35.3309 182.647 32.6978 193.879 33.0276C205.111 33.3574 216.058 36.6385 225.619 42.5411C235.181 48.4436 243.02 56.7594 248.348 66.6525L192.001 97L137.531 63.3983Z"/>
</mask>
<path d="M137.531 63.3983C143.431 53.835 151.744 45.9935 161.635 40.6622C171.527 35.3309 182.647 32.6978 193.879 33.0276C205.111 33.3574 216.058 36.6385 225.619 42.5411C235.181 48.4436 243.02 56.7594 248.348 66.6525L192.001 97L137.531 63.3983Z" fill="#E93D58" stroke="black" stroke-width="2" mask="url(#path-5-inside-4)"/>
<mask id="path-6-inside-5" fill="white">
<path d="M128 97C128 85.7656 130.958 74.7292 136.575 65C142.192 55.2708 150.271 47.1915 160 41.5744L192 97L128 97Z"/>
</mask>
<path d="M128 97C128 85.7656 130.958 74.7292 136.575 65C142.192 55.2708 150.271 47.1915 160 41.5744L192 97L128 97Z" fill="#926EE4" stroke="black" stroke-width="2" mask="url(#path-6-inside-5)"/>
<mask id="path-7-inside-6" fill="white">
<path d="M224 41.5744C233.73 47.1916 241.809 55.2708 247.426 65C253.043 74.7292 256 85.7657 256 97L192 97L224 41.5744Z"/>
</mask>
<path d="M224 41.5744C233.73 47.1916 241.809 55.2708 247.426 65C253.043 74.7292 256 85.7657 256 97L192 97L224 41.5744Z" fill="#EF973C" stroke="black" stroke-width="2" mask="url(#path-7-inside-6)"/>
</g>
<defs>
<clipPath id="clip0">
<rect width="384" height="192" fill="white"/>
</clipPath>
</defs>
</svg>
