<svg width="384" height="192" viewBox="0 0 384 192" fill="none" xmlns="http://www.w3.org/2000/svg">
<rect width="384" height="192" fill="#7AA100"/>
<rect x="30.5" y="138.5" width="323" height="11" fill="#99C900" stroke="black"/>
<rect x="30.5" y="138.5" width="114" height="11" fill="#B6E521" stroke="black"/>
<path d="M41.9594 98.0019C30.8328 89.0496 26.7605 73.0881 33.007 59.0165C39.2536 44.945 53.8233 37.259 67.9263 39.5064L61.6457 53.6546L59.97 57.4295M82.5501 45.9981C93.6767 54.9504 97.7491 70.9119 91.5025 84.9835C85.2559 99.055 70.6862 106.741 56.5832 104.494L64.5395 86.5705" stroke="black"/>
<path d="M120.844 82.8305C116.355 69.2736 121.594 53.6562 134.476 45.225C147.358 36.7938 163.767 38.2424 174.394 47.782L161.442 56.2591L157.986 58.5209M183.156 61.1696C187.645 74.7265 182.406 90.3438 169.524 98.775C156.642 107.206 140.233 105.758 129.606 96.218L146.014 85.4791" stroke="black"/>
<path d="M344.392 102.569C331.079 107.738 315.217 103.295 306.145 90.8554C297.073 78.4162 297.691 61.955 306.681 50.859L315.802 63.3659L318.235 66.7029M319.608 41.4313C332.921 36.2624 348.783 40.7054 357.855 53.1446C366.926 65.5838 366.309 82.045 357.319 93.141L345.764 77.2971" stroke="black"/>
<path d="M216.72 50.8118C226.055 40.0036 242.148 36.4893 255.994 43.222C269.839 49.9546 277.013 64.783 274.277 78.7992L260.356 72.0299L256.641 70.2238M267.28 93.1882C257.945 103.996 241.852 107.511 228.006 100.778C214.161 94.0454 206.987 79.217 209.724 65.2008L227.359 73.7762" stroke="black"/>
</svg>
